<?xml version="1.0" encoding="UTF-8" standalone="no"?>
<!-- Created with Inkscape (http://www.inkscape.org/) -->

<svg
   xmlns:dc="http://purl.org/dc/elements/1.1/"
   xmlns:cc="http://creativecommons.org/ns#"
   xmlns:rdf="http://www.w3.org/1999/02/22-rdf-syntax-ns#"
   xmlns:svg="http://www.w3.org/2000/svg"
   xmlns="http://www.w3.org/2000/svg"
   xmlns:sodipodi="http://sodipodi.sourceforge.net/DTD/sodipodi-0.dtd"
   xmlns:inkscape="http://www.inkscape.org/namespaces/inkscape"
   width="48"
   height="48"
   viewBox="0 0 48 48.000001"
   id="svg3333"
   version="1.1"
   inkscape:version="0.91 r13725"
   sodipodi:docname="visual-relevance-perspective.svg">
  <defs
     id="defs3335" />
  <sodipodi:namedview
     id="base"
     pagecolor="#ffffff"
     bordercolor="#666666"
     borderopacity="1.0"
     inkscape:pageopacity="0.0"
     inkscape:pageshadow="2"
     inkscape:zoom="12.583333"
     inkscape:cx="24"
     inkscape:cy="26.24106"
     inkscape:document-units="px"
     inkscape:current-layer="layer1"
     showgrid="false"
     units="px"
     inkscape:window-width="1440"
     inkscape:window-height="806"
     inkscape:window-x="0"
     inkscape:window-y="1"
     inkscape:window-maximized="1" />
  <metadata
     id="metadata3338">
    <rdf:RDF>
      <cc:Work
         rdf:about="">
        <dc:format>image/svg+xml</dc:format>
        <dc:type
           rdf:resource="http://purl.org/dc/dcmitype/StillImage" />
        <dc:title />
      </cc:Work>
    </rdf:RDF>
  </metadata>
  <g
     inkscape:label="Layer 1"
     inkscape:groupmode="layer"
     id="layer1"
     transform="translate(0,-1004.3622)">
    <path
       inkscape:connector-curvature="0"
       id="path3"
       d="m 23.777896,1025.008 c 0.0018,0 0.0043,-0.013 0.0061,-0.013 -0.0068,-0.033 -0.01239,-0.062 -0.01487,-0.082 0.0032,0.029 0.0063,0.059 0.0088,0.09 m 6.360052,6.9446 c 2.59e-4,0 2.59e-4,-3e-4 2.59e-4,0 -9.34e-4,0 -0.0039,0 -0.0044,-0.013 9.33e-4,0 0.0032,0 0.0042,0.013 m 0.162811,0.02 c -0.03939,-0.013 -0.127883,0.013 -0.162811,-0.02 -0.0216,0.074 0.01099,0.1024 0.162811,0.02 m -6.195038,-20.7118 c -9.145597,0 -16.5593728,7.4138 -16.5593728,16.5593 0,9.1456 7.4137758,16.5596 16.5593728,16.5596 9.145468,0 16.559504,-7.414 16.559504,-16.5596 0,-9.1455 -7.414036,-16.5593 -16.559504,-16.5593 m 10.577277,6.469 c -0.570525,0.018 -0.967887,0.019 -1.426376,0.3346 -0.184612,0.1275 -0.309907,0.2968 -0.544326,0.3625 -0.210163,0.059 -0.43708,0.013 -0.64556,0.078 -0.752484,0.2553 -0.633139,1.8666 -1.624571,1.6234 -0.465799,-0.1138 -0.793819,-0.6647 -1.028303,-1.024 -0.20641,-0.3162 -0.582491,-0.5777 -0.328407,-0.9733 -0.115793,0.029 -0.239336,-0.013 -0.353376,0.018 0.158867,-0.3491 0.691357,-0.3184 0.779975,-0.4966 0.220707,-0.4467 -0.607524,-0.4935 -0.842138,-0.5552 0.282675,-0.3015 0.425824,0.1011 0.704811,0.033 0.268186,-0.066 -0.141595,-0.4191 -0.302338,-0.4587 -0.05783,-0.015 -1.002106,0.2609 -0.455513,-0.2283 -0.674733,-0.43 -1.349013,-0.8601 -2.02394,-1.2904 -0.113657,0.4785 0.897962,0.7505 1.228309,0.9192 -0.05136,0.1976 -0.35868,0.4853 -0.594005,0.401 -0.221611,-0.08 -0.131569,-0.4468 -0.466316,-0.41 -0.238883,0.5557 0.505321,0.3933 0.574406,0.7338 0.07866,0.3879 -0.281317,0.2236 -0.419744,0.2167 -0.03292,0 -0.29089,-0.2686 -0.304926,-0.067 -0.01682,0.2398 0.411592,0.1463 0.441671,0.3887 -0.498723,0.02 -0.753519,-0.1599 -1.159614,-0.4297 -0.473884,-0.3144 -0.717036,-0.286 -1.297651,-0.286 0.17368,-0.071 0.412756,-0.1239 0.561273,-0.2391 0.08111,-0.063 0.399433,-0.3722 0.420327,-0.4413 0.09011,-0.2979 -0.0047,-0.2754 -0.289855,-0.4707 -0.253567,-0.1733 -0.560887,-0.4844 -0.867948,-0.546 -1.112716,-0.2223 -0.34322,1.0048 -1.187881,1.1739 0.01442,5e-4 0.03014,0 0.04257,0 l -0.04838,0 c 0.0021,-3e-4 0.0039,0 0.0057,0 -0.195414,-0.013 -0.561597,-0.054 -0.687475,0.049 -0.08895,0.072 -0.09632,0.3642 -0.195673,0.4696 -0.176784,0.1884 -0.440443,0.2264 -0.651316,0.3621 -0.206024,0.1327 -0.660049,0.4733 -0.780946,0.7045 -0.44581,0.8517 1.004304,1.1161 1.554064,1.3648 0.248391,0.1125 0.97429,0.2667 1.109548,0.4545 0.181313,0.2526 -0.156281,0.4892 0.222323,0.6665 0.120899,0.057 0.370388,0.068 0.474465,-0.049 0.169154,-0.1907 -0.06877,-0.2339 -0.109246,-0.4541 -0.07852,-0.4242 0.05078,-0.2557 0.26411,-0.4133 0.434685,-0.3208 0.336752,-0.3404 0.180472,-0.852 -0.07271,-0.2381 -0.346584,-0.9025 -0.105821,-1.0783 0.314433,-0.2294 0.984638,0.1238 1.225591,0.1538 0.28054,0.034 0.439665,0.423 0.592647,0.582 0.101486,0.1049 0.282999,0.3294 0.460429,0.3051 0.281576,-0.038 0.16359,-0.2847 0.326985,-0.398 0.437984,-0.3039 0.553319,0.1087 0.727904,0.5216 0.164236,0.3875 0.319546,0.5313 0.611858,0.78 0.135774,0.1163 0.730686,0.529 0.674539,0.7836 -0.03804,0.1715 -0.71762,0.4315 -0.89919,0.4893 -0.664383,0.2102 -1.910418,-0.3446 -2.044186,0.7089 0.257576,-0.096 0.990721,-0.6948 1.210586,-0.411 0.100324,0.1288 -0.0795,0.3164 -0.03713,0.4443 0.125361,0.3834 0.421166,0.2498 0.731267,0.1879 -0.02102,0.013 -0.04282,0.025 -0.06566,0.035 0.423689,-0.2178 0.379639,-0.1723 0.573954,-0.5256 0.06345,-0.1151 0.157897,-0.3945 0.247421,-0.4771 0.308096,-0.2833 0.355446,-0.088 0.546073,0.1304 0.05,0.057 0.521752,0.7368 0.353829,0.7031 -0.548597,-0.11 -1.075523,-0.095 -1.530585,0.2046 -0.262169,0.1731 -0.510173,0.4068 -0.82325,0.5218 -0.07503,0.028 -0.63081,0.08 -0.56509,-0.015 0.0958,-0.138 0.426017,-0.2297 0.556228,-0.3787 -0.360943,-0.1487 -0.661987,0.1793 -0.945764,0.3714 -0.301044,0.1425 -0.371034,0.4079 -0.627317,0.6405 -0.111837,0.1011 -0.323426,0.1188 -0.433261,0.2523 -0.106605,0.1294 -0.119926,0.3331 -0.220837,0.4561 -0.07084,0.086 -0.252402,0.033 -0.326338,0.1638 -0.09644,0.1697 0.0881,0.3271 0.04767,0.4494 -0.07406,0.222 -0.496265,0.4101 -0.658626,0.5699 0.02174,-0.022 0.04321,-0.043 0.06443,-0.063 -0.162683,0.1706 -0.368641,0.2962 -0.495683,0.4938 0.05835,0.2789 0.242182,0.9441 0.190951,1.0971 -0.169154,0.5035 -0.497883,-0.2737 -0.631199,-0.4747 -0.458037,-0.6902 -1.373398,-0.2281 -1.998775,-0.1711 -0.799706,0.073 -1.583044,1.1112 -1.089755,1.9536 0.236813,0.4042 0.63521,0.5606 1.092081,0.4669 0.406614,-0.083 0.528739,-0.6521 0.911676,-0.6624 0.703777,-0.019 0.01553,0.6896 -0.04535,0.9496 -0.05628,0.2407 0.08777,0.263 0.335586,0.3226 0.183125,0.043 0.442318,-0.078 0.600992,0.027 0.09994,0.066 0.09515,0.4275 0.232737,0.3134 -0.270708,0.2243 -0.207511,0.7563 0.06999,0.9486 0.307707,0.2135 0.670074,0.015 0.992142,0.097 0.608236,0.155 0.317798,-0.045 0.85197,-0.3688 0.360427,-0.2173 0.419614,0.042 0.666001,0.042 0.167663,0 0.274135,-0.2411 0.554546,-0.1707 0.228598,0.058 0.3189,0.234 0.591741,0.2745 0.111837,0.016 0.22737,-0.042 0.334035,-0.03 0.504675,0.056 0.890976,0.3785 1.288726,0.67 0.327695,0.24 0.544844,0.1913 0.927586,0.3009 0.279701,0.08 0.795759,0.4843 0.769432,0.8398 -0.0048,0.063 -0.249231,0.3832 -0.290953,0.5269 0.07155,0.049 0.569358,-0.062 0.714966,-0.072 -0.0478,0.056 -0.386884,0.2941 -0.386884,0.1676 0,0.064 0.239919,0.1977 0.29833,0.2392 0.176784,-0.574 0.467222,-0.2047 0.816651,-0.062 0.297164,0.1213 0.662895,0.1275 0.979725,0.2029 0.269219,0.063 0.862449,0.2459 1.061808,0.4658 0.239983,0.2645 0.07414,0.6943 -0.103496,0.9578 -0.23235,0.3452 -0.582556,0.4778 -0.727386,0.8838 -0.114555,0.3219 -0.02846,0.6471 -0.09393,1.0039 -0.08842,0.4829 -0.159385,0.3137 -0.470326,0.6084 -0.261782,0.248 -0.0044,0.2049 -0.360685,0.363 -0.358033,0.1592 -0.673051,0.1112 -0.920926,0.5044 0.0099,-0.024 0.01798,-0.049 0.02491,-0.076 -0.104532,0.1464 -0.156862,0.4461 -0.206346,0.5443 -0.125032,0.2509 -0.297229,0.4091 -0.494777,0.6183 -0.07582,0.08 -0.771956,1.0309 -0.812189,0.9544 -0.05175,-0.1 -0.60054,0.1 -0.626736,-0.042 0.02186,0.1188 -0.0052,0.08 0.131052,0.148 -0.12627,0.7814 -0.456743,0.898 -1.224363,0.9061 0.06597,0.3756 -0.278147,0.3005 -0.437984,0.5026 -0.09347,0.1175 -0.138169,0.4495 -0.203048,0.6023 -0.04037,0.096 -0.34005,0.4802 -0.34005,0.5566 -3.26e-4,0.07 0.100715,0.1728 0.195413,0.2712 -0.541092,0.1075 -1.092857,0.1819 -1.653355,0.2273 0.104987,-0.1321 0.130276,-0.2482 -0.203889,-0.2643 0.08946,-0.2428 0.299299,-0.3814 0.388372,-0.6167 0.04217,-0.1113 0.0072,-0.155 0.04288,-0.2649 0.122314,-0.38 0.06922,-0.2366 1.93e-4,-0.5316 -0.161259,-0.6913 0.05764,-0.8804 0.245999,-1.5133 0.193474,-0.6508 0.175492,-1.494 0.299363,-2.1947 0.05879,-0.3354 0.155245,-1.0329 0.03881,-1.3499 -0.131117,-0.357 -0.70837,-0.638 -0.972803,-0.8781 -0.374204,-0.3409 -0.573112,-0.7095 -0.850935,-1.1309 -0.141143,-0.214 -0.301886,-0.4239 -0.411916,-0.6567 -0.23539,-0.4977 1.29e-4,-0.2012 0.03972,-0.495 0.0379,-0.2839 -0.03377,-0.5375 0.07898,-0.8353 0.124589,-0.3294 0.435655,-0.5346 0.537858,-0.8666 0.09198,-0.2955 0.022,-0.6672 -0.281703,-0.7659 -0.169218,-0.056 -0.355835,0.072 -0.525956,0.044 -0.237202,-0.038 -0.505517,-0.2155 -0.691551,-0.3571 -0.259777,-0.1977 -0.357129,-0.5195 -0.633787,-0.7069 -0.231509,-0.1565 -0.396263,-0.063 -0.643942,-0.136 -0.258353,-0.076 -0.417803,-0.3949 -0.626284,-0.4947 -0.312753,-0.1496 -0.488955,0.066 -0.819109,0.022 -0.280799,-0.037 -0.708951,-0.348 -0.971315,-0.4656 -0.533459,-0.2387 -0.858309,-0.5022 -1.071511,-1.0435 -0.182737,-0.4642 -0.448983,-0.6809 -0.762641,-1.0677 -0.317669,-0.3917 -0.41722,-0.7255 -0.906952,-0.8301 -0.0575,-0.013 0.119863,0.4118 0.138038,0.4454 0.175102,0.3241 0.43779,0.6201 0.649183,0.9218 0.311005,0.4443 0.178466,0.5277 -0.137846,0.099 -0.36172,-0.4915 -0.781593,-0.9805 -1.09538,-1.5011 -0.118637,-0.1966 -0.0958,-0.324 -0.291409,-0.5108 -0.189139,-0.1805 -0.43656,-0.2682 -0.626928,-0.44 -0.684953,-0.6161 -0.809538,-1.4383 -0.731398,-2.3166 0.02542,-0.2861 0.128789,-0.5152 0.08319,-0.7902 -0.03765,-0.2286 -0.17258,-0.4174 -0.341021,-0.5858 -0.05433,-0.086 -0.190629,-0.2994 -0.198585,-0.313 -0.155438,-0.2583 -0.276399,-0.5123 -0.523497,-0.7244 -0.141661,-0.1213 -0.508426,-0.4072 -0.853717,-0.6465 1.551283,-1.9345 3.581172,-3.4678 5.909779,-4.42 0.01863,0.1176 0.06883,0.234 0.144184,0.3458 0.191532,0.284 0.373945,0.2615 0.747633,0.3402 -0.04004,0.4337 -0.54711,0.4371 -0.890329,0.3899 -0.409652,-0.056 -0.840651,-0.1921 -1.195579,0.167 0.196061,0.1175 0.733985,0.5768 0.662637,0.097 0.392316,-0.019 0.771761,-0.032 1.155731,0.015 0.153887,0.019 0.6693,0.1918 0.80902,0.1124 0.0586,-0.033 0.121088,-0.3222 0.183125,-0.4112 -0.109449,5e-4 -0.226852,-0.056 -0.335782,-0.044 0.254277,-0.3256 0.507584,-0.07 0.831141,0.08 -0.356222,0.2166 -0.145025,0.7353 0.203371,0.3137 0.286038,-0.3465 -0.07004,-0.5981 -0.433326,-0.7999 0.366246,-0.458 0.592193,-0.4995 0.936771,0.018 0.05686,-0.3191 0.314176,-0.1914 0.583267,-0.1679 l 0,-0.08 c -0.118497,0 -0.244962,-0.066 -0.362109,-0.053 0.274074,-0.4373 0.0991,-0.5372 0.490897,-0.6798 0.312042,-0.1137 1.202113,-0.013 1.31169,-0.3012 -0.622856,0.1214 -1.375404,0.1499 -1.937455,0.4333 -0.242245,0.1226 -0.530937,0.5077 -0.772923,0.2568 -0.247939,-0.2568 0.177365,-0.6702 0.395033,-0.7962 l -0.05207,0 c 0.985609,-0.2097 2.006344,-0.3222 3.053599,-0.3222 0.676738,0 1.341573,0.049 1.994441,0.1393 -0.225945,0.1188 -0.05879,0.1987 -0.223423,0.3199 -0.314112,0.231 -0.871958,0.4239 -1.245838,0.5698 0.475373,0 1.625929,0.4457 1.847217,-0.221 -0.153432,-0.024 -0.306477,-0.047 -0.459846,-0.069 0.286426,-0.19 0.605841,-0.3438 0.9413,-0.4564 3.026496,0.5997 5.718634,2.1348 7.76644,4.2891 -0.01397,-2e-4 -0.02852,-6e-4 -0.04257,-2e-4 m 2.67998,5.8139 c 0.02718,-0.058 0.09082,-0.077 0.117271,-0.1252 0.05524,-0.1011 0.04296,-0.1696 0.111067,-0.2561 0.07296,-0.094 0.171223,-0.1163 0.252661,-0.1896 0.0328,-0.029 0.0511,-0.057 0.06618,-0.085 0.244186,0.6817 0.438888,1.3864 0.580548,2.1102 -0.0044,0.013 -0.0068,0.013 -0.01213,0.018 -0.03558,0.028 -0.267666,0.063 -0.315277,0.064 -0.168181,0.013 -0.292958,-0.1049 -0.413661,-0.2101 -0.122643,-0.1061 -0.267217,-0.2494 -0.354476,-0.3873 -0.09321,-0.1475 -0.03564,-0.2989 -0.02898,-0.4674 0.0056,-0.1418 -0.06327,-0.3436 -0.0032,-0.4713 m 0.189461,7.5927 c -0.284421,-0.2472 -0.620007,-0.5785 -0.822215,-0.8987 -0.216112,-0.3413 -0.08293,-0.6923 -0.06727,-1.0833 0.01324,-0.3287 -0.147289,-0.7965 -0.0076,-1.0924 0.0641,-0.1353 0.211197,-0.1799 0.271614,-0.2909 0.128659,-0.2343 0.100008,-0.3926 0.257898,-0.5942 0.169283,-0.2165 0.396975,-0.2696 0.585661,-0.4393 0.19755,-0.1782 0.192118,-0.3185 0.317217,-0.5466 0.09146,-0.1667 0.306609,-0.4448 0.510369,-0.5901 0.110485,0.724 0.168115,1.4651 0.168115,2.2194 0,1.3049 -0.173678,2.5698 -0.495228,3.7748 -0.274201,-0.071 -0.49976,-0.2683 -0.718527,-0.4587" />
  </g>
</svg>
